solid JuggleLights
facet normal -1.0 0.0 0.0
  outer loop
    vertex -175.12846266932752 45.02925988551364 49.50000000000002
    vertex -175.12846266932752 34.27925988551367 1.748816423285524e-16
    vertex -175.12846266932752 34.279259885513646 49.50000000000002
  endloop
endfacet
facet normal -1.0 0.0 0.0
  outer loop
    vertex -175.12846266932752 34.27925988551367 1.748816423285524e-16
    vertex -175.12846266932752 45.02925988551364 49.50000000000002
    vertex -175.12846266932752 45.02925988551366 -1.7974916822803856e-16
  endloop
endfacet
facet normal 1.0 0.0 0.0
  outer loop
    vertex -173.1284626693275 36.27925988551367 2.0
    vertex -173.1284626693275 43.02925988551364 49.50000000000002
    vertex -173.1284626693275 36.27925988551364 49.50000000000002
  endloop
endfacet
facet normal 1.0 0.0 0.0
  outer loop
    vertex -173.1284626693275 43.02925988551364 49.50000000000002
    vertex -173.1284626693275 36.27925988551367 2.0
    vertex -173.1284626693275 43.02925988551366 1.9999999999999996
  endloop
endfacet
facet normal -2.166182698054793e-17 6.533257649313902e-16 1.0
  outer loop
    vertex -175.12846266932752 34.279259885513646 49.50000000000002
    vertex -173.1284626693275 36.27925988551364 49.50000000000002
    vertex -175.12846266932752 45.02925988551364 49.50000000000002
  endloop
endfacet
facet normal -2.166182698054793e-17 6.533257649313902e-16 1.0
  outer loop
    vertex -173.1284626693275 36.27925988551364 49.50000000000002
    vertex -175.12846266932752 34.279259885513646 49.50000000000002
    vertex -141.12846266932746 34.279259885513646 49.50000000000002
  endloop
endfacet
facet normal -2.166182698054793e-17 6.533257649313902e-16 1.0
  outer loop
    vertex -173.1284626693275 36.27925988551364 49.50000000000002
    vertex -141.12846266932746 34.279259885513646 49.50000000000002
    vertex -143.1284626693275 36.27925988551364 49.50000000000002
  endloop
endfacet
facet normal -2.166182698054793e-17 6.533257649313902e-16 1.0
  outer loop
    vertex -143.1284626693275 36.27925988551364 49.50000000000002
    vertex -141.12846266932746 34.279259885513646 49.50000000000002
    vertex -143.1284626693275 43.02925988551364 49.50000000000002
  endloop
endfacet
facet normal -2.166182698054793e-17 6.533257649313902e-16 1.0
  outer loop
    vertex -175.12846266932752 45.02925988551364 49.50000000000002
    vertex -173.1284626693275 43.02925988551364 49.50000000000002
    vertex -141.12846266932746 45.02925988551364 49.50000000000002
  endloop
endfacet
facet normal -2.166182698054793e-17 6.533257649313902e-16 1.0
  outer loop
    vertex -173.1284626693275 43.02925988551364 49.50000000000002
    vertex -175.12846266932752 45.02925988551364 49.50000000000002
    vertex -173.1284626693275 36.27925988551364 49.50000000000002
  endloop
endfacet
facet normal -2.166182698054793e-17 6.533257649313902e-16 1.0
  outer loop
    vertex -141.12846266932746 45.02925988551364 49.50000000000002
    vertex -173.1284626693275 43.02925988551364 49.50000000000002
    vertex -143.1284626693275 43.02925988551364 49.50000000000002
  endloop
endfacet
facet normal -2.166182698054793e-17 6.533257649313902e-16 1.0
  outer loop
    vertex -141.12846266932746 45.02925988551364 49.50000000000002
    vertex -143.1284626693275 43.02925988551364 49.50000000000002
    vertex -141.12846266932746 34.279259885513646 49.50000000000002
  endloop
endfacet
facet normal 1.9224450028058823e-32 -1.0 -4.749417233764877e-16
  outer loop
    vertex -143.1284626693275 43.02925988551364 49.50000000000002
    vertex -173.1284626693275 43.02925988551366 1.9999999999999996
    vertex -143.1284626693275 43.02925988551366 1.9999999999999996
  endloop
endfacet
facet normal 1.9224450028058823e-32 -1.0 -4.749417233764877e-16
  outer loop
    vertex -173.1284626693275 43.02925988551366 1.9999999999999996
    vertex -143.1284626693275 43.02925988551364 49.50000000000002
    vertex -173.1284626693275 43.02925988551364 49.50000000000002
  endloop
endfacet
facet normal 0.0 -1.0 -3.497632846571036e-16
  outer loop
    vertex -141.12846266932746 34.279259885513646 49.50000000000002
    vertex -175.12846266932752 34.27925988551367 1.748816423285524e-16
    vertex -141.12846266932746 34.27925988551367 1.748816423285524e-16
  endloop
endfacet
facet normal 0.0 -1.0 -3.497632846571036e-16
  outer loop
    vertex -175.12846266932752 34.27925988551367 1.748816423285524e-16
    vertex -141.12846266932746 34.279259885513646 49.50000000000002
    vertex -175.12846266932752 34.279259885513646 49.50000000000002
  endloop
endfacet
facet normal 1.0 0.0 0.0
  outer loop
    vertex -141.12846266932746 34.27925988551367 1.748816423285524e-16
    vertex -141.12846266932746 45.02925988551364 49.50000000000002
    vertex -141.12846266932746 34.279259885513646 49.50000000000002
  endloop
endfacet
facet normal 1.0 0.0 0.0
  outer loop
    vertex -141.12846266932746 45.02925988551364 49.50000000000002
    vertex -141.12846266932746 34.27925988551367 1.748816423285524e-16
    vertex -141.12846266932746 45.02925988551366 -1.7974916822803856e-16
  endloop
endfacet
facet normal 0.0 0.0 1.0
  outer loop
    vertex -143.1284626693275 36.27925988551367 2.0
    vertex -173.1284626693275 43.02925988551366 1.9999999999999996
    vertex -173.1284626693275 36.27925988551367 2.0
  endloop
endfacet
facet normal 0.0 0.0 1.0
  outer loop
    vertex -173.1284626693275 43.02925988551366 1.9999999999999996
    vertex -143.1284626693275 36.27925988551367 2.0
    vertex -143.1284626693275 43.02925988551366 1.9999999999999996
  endloop
endfacet
facet normal 0.0 1.0 3.6095570976613103e-16
  outer loop
    vertex -173.1284626693275 36.27925988551364 49.50000000000002
    vertex -143.1284626693275 36.27925988551367 2.0
    vertex -173.1284626693275 36.27925988551367 2.0
  endloop
endfacet
facet normal 0.0 1.0 3.6095570976613103e-16
  outer loop
    vertex -143.1284626693275 36.27925988551367 2.0
    vertex -173.1284626693275 36.27925988551364 49.50000000000002
    vertex -143.1284626693275 36.27925988551364 49.50000000000002
  endloop
endfacet
facet normal -1.0 0.0 0.0
  outer loop
    vertex -143.1284626693275 43.02925988551364 49.50000000000002
    vertex -143.1284626693275 36.27925988551367 2.0
    vertex -143.1284626693275 36.27925988551364 49.50000000000002
  endloop
endfacet
facet normal -1.0 0.0 0.0
  outer loop
    vertex -143.1284626693275 36.27925988551367 2.0
    vertex -143.1284626693275 43.02925988551364 49.50000000000002
    vertex -143.1284626693275 43.02925988551366 1.9999999999999996
  endloop
endfacet
facet normal -9.963539006036488e-47 1.0 4.557521587956197e-16
  outer loop
    vertex -175.12846266932752 45.02925988551364 49.50000000000002
    vertex -141.12846266932746 45.02925988551366 -1.7974916822803856e-16
    vertex -175.12846266932752 45.02925988551366 -1.7974916822803856e-16
  endloop
endfacet
facet normal -9.963539006036488e-47 1.0 4.557521587956197e-16
  outer loop
    vertex -141.12846266932746 45.02925988551366 -1.7974916822803856e-16
    vertex -175.12846266932752 45.02925988551364 49.50000000000002
    vertex -141.12846266932746 45.02925988551364 49.50000000000002
  endloop
endfacet
endsolid JuggleLights
